<?xml version="1.0" encoding="UTF-8"?>
<svg width="98px" height="98px" viewBox="0 0 98 98" version="1.1" xmlns="http://www.w3.org/2000/svg" xmlns:xlink="http://www.w3.org/1999/xlink">
    <!-- Generator: sketchtool 46.2 (44496) - http://www.bohemiancoding.com/sketch -->
    <title>76E15653-0230-40C6-AD20-ADBF95340D1E</title>
    <desc>Created with sketchtool.</desc>
    <defs></defs>
    <g id="Design" stroke="none" stroke-width="1" fill="none" fill-rule="evenodd">
        <g id="Landing-Desktop-HD" transform="translate(-371.000000, -3172.000000)">
            <g id="Video" transform="translate(135.000000, 3030.000000)">
                <g id="Play-btn">
                    <g transform="translate(236.000000, 142.000000)">
                        <circle id="Oval-2" stroke="#FFFFFF" stroke-width="2" cx="49" cy="49" r="48"></circle>
                        <path d="M56.1489856,34.1639899 L71.0983036,60.9939334 L71.0983036,60.9939334 C71.9047479,62.4412805 71.3851934,64.2683394 69.9378463,65.0747836 C69.4913746,65.3235522 68.9887493,65.4541298 68.4776498,65.4541298 L38.5790137,65.4541298 L38.5790137,65.4541298 C36.9221594,65.4541298 35.5790137,64.1109841 35.5790137,62.4541298 C35.5790137,61.9430303 35.7095913,61.440405 35.9583598,60.9939334 L50.9076779,34.1639899 L50.9076779,34.1639899 C51.7141221,32.7166427 53.541181,32.1970883 54.9885282,33.0035325 C55.4756887,33.2749724 55.8775456,33.6768294 56.1489856,34.1639899 Z" id="Triangle" fill="#FFFFFF" transform="translate(53.528603, 49.038886) rotate(90.000000) translate(-53.528603, -49.038886) "></path>
                    </g>
                </g>
            </g>
        </g>
    </g>
</svg>